<?xml version="1.0" standalone="no"?><!DOCTYPE svg PUBLIC "-//W3C//DTD SVG 1.1//EN" "http://www.w3.org/Graphics/SVG/1.1/DTD/svg11.dtd"><svg t="1524463311946" class="icon" style="" viewBox="0 0 1024 1024" version="1.1" xmlns="http://www.w3.org/2000/svg" p-id="7053" xmlns:xlink="http://www.w3.org/1999/xlink" width="48" height="48"><defs><style type="text/css"></style></defs><path d="M512 1024C229.2224 1024 0 794.7776 0 512S229.2224 0 512 0s512 229.2224 512 512-229.2224 512-512 512z m0-998.4C243.3792 25.6 25.6 243.3792 25.6 512s217.7792 486.4 486.4 486.4 486.4-217.7792 486.4-486.4S780.6208 25.6 512 25.6z" fill="#ffffff" p-id="7054"></path><path d="M512 1024C229.2224 1024 0 794.7776 0 512S229.2224 0 512 0s512 229.2224 512 512-229.2224 512-512 512z m0-998.4C243.3792 25.6 25.6 243.3792 25.6 512s217.7792 486.4 486.4 486.4 486.4-217.7792 486.4-486.4S780.6208 25.6 512 25.6z" fill="#ffffff" p-id="7055"></path><path d="M793.6 594.0736v115.3024c0 32.3584-26.5728 58.624-59.392 58.624H289.792C257.024 768 230.4 741.7856 230.4 709.376v-115.3024c38.8352 0 70.2976-31.0528 70.2976-69.376 0-38.3232-31.4624-69.376-70.2976-69.376V340.224C230.4 307.8656 256.9728 281.6 289.792 281.6h444.416c32.768 0 59.392 26.2144 59.392 58.624v115.0976c-38.8352 0-70.2976 31.0528-70.2976 69.376 0 38.3232 31.4624 69.376 70.2976 69.376z m-35.2-167.5264V340.224a24.064 24.064 0 0 0-24.192-23.8848H289.792a24.064 24.064 0 0 0-24.192 23.8848v86.3232c40.9088 14.336 70.2976 52.9152 70.2976 98.1504 0 45.2096-29.3888 83.8144-70.2976 98.1504v86.528a24.064 24.064 0 0 0 24.192 23.8848h444.416a24.064 24.064 0 0 0 24.192-23.8848v-86.528c-40.9088-14.336-70.2976-52.9408-70.2976-98.1504 0-45.2352 29.3888-83.8144 70.2976-98.1504z m-123.904 98.2528v0.0512h-105.2928v34.7392h105.216c9.7536 0 17.6128 7.7568 17.6128 17.3824a17.4592 17.4592 0 0 1-17.6128 17.3568h-105.216v103.808a17.4592 17.4592 0 0 1-17.5872 17.3568 17.4848 17.4848 0 0 1-17.6128-17.3568v-103.8592h-105.216a17.4592 17.4592 0 0 1-17.5872-17.3568c0-9.6256 7.8592-17.3824 17.5872-17.3824h105.216V524.8h-105.216a17.4592 17.4592 0 0 1-17.5872-17.3824c0-9.6 7.8592-17.3568 17.5872-17.3568h88.7296l-92.7744-91.4688a17.2288 17.2288 0 0 1 0-24.6016 17.792 17.792 0 0 1 24.9088 0l101.9648 100.6592 101.9648-100.7104a17.792 17.792 0 0 1 24.9088 0 17.2288 17.2288 0 0 1 0 24.6016l-92.7232 91.52h88.7296c9.728 0 17.5872 7.7568 17.5872 17.3568a17.4592 17.4592 0 0 1-17.5872 17.3824z" fill="#ffffff" p-id="7056"></path></svg>